<?xml version="1.0" encoding="utf-8"?>
<!-- Generator: Adobe Illustrator 22.0.0, SVG Export Plug-In . SVG Version: 6.00 Build 0)  -->
<svg version="1.1" id="Layer_1" xmlns="http://www.w3.org/2000/svg" xmlns:xlink="http://www.w3.org/1999/xlink" x="0px" y="0px"
	 viewBox="0 0 24 22" style="enable-background:new 0 0 24 22;" xml:space="preserve">
<style type="text/css">
	.st0{fill:#90BBBE;}
</style>
<g>
	<path class="st0" d="M10.9,1.4c0.2-0.5,0-1.1-0.6-1.3c-0.5-0.2-1.1,0-1.3,0.6L6.1,8h2.2L10.9,1.4z"/>
	<path class="st0" d="M14.9,0.6c-0.2-0.5-0.8-0.8-1.3-0.6c-0.5,0.2-0.8,0.8-0.6,1.3L15.7,8h2.2L14.9,0.6z"/>
	<path class="st0" d="M18.3,9h-2.2H7.9H5.7H2H1.5C0.7,9,0,9.7,0,10.5S0.7,12,1.5,12h0.4l2.8,9c0.2,0.5,0.7,1,1.3,1h12
		c0.5,0,1.1-0.4,1.3-1l2.8-9h0.4c0.8,0,1.5-0.7,1.5-1.5S23.3,9,22.5,9H22H18.3z M9,19c0,0.6-0.4,1-1,1s-1-0.4-1-1v-5
		c0-0.6,0.4-1,1-1s1,0.4,1,1V19z M13,19c0,0.6-0.4,1-1,1c-0.6,0-1-0.4-1-1v-5c0-0.6,0.4-1,1-1c0.6,0,1,0.4,1,1V19z M17,19
		c0,0.6-0.4,1-1,1s-1-0.4-1-1v-5c0-0.6,0.4-1,1-1c0.6,0,1,0.4,1,1V19z"/>
</g>
</svg>
