<?xml version="1.0" encoding="utf-8"?>
<!-- Generator: Adobe Illustrator 19.2.1, SVG Export Plug-In . SVG Version: 6.00 Build 0)  -->
<svg version="1.1" id="Layer_1" xmlns="http://www.w3.org/2000/svg" xmlns:xlink="http://www.w3.org/1999/xlink" x="0px" y="0px"
	 viewBox="0 0 220 28" style="enable-background:new 0 0 220 28;" xml:space="preserve">
<style type="text/css">
	.st0{fill:#979ABF;}
</style>
<g>
	<g>
		<path class="st0" d="M44.7,11.4c0.3-0.7,0.1-1.6-0.3-1.9c-0.3-0.6-0.5-0.6-1.3-0.2C42.7,9,42.3,8.9,41.9,9
			c-0.3,0.4-0.2,0.8-0.2,1.2c-0.2,0.6-0.5,1.1-0.6,1.6c-0.2,0.3-0.3,0.7-0.4,1.1c-0.3,0.2-0.4,0.6-0.5,0.9c-0.2,0.5-0.3,1-0.5,1.4
			c-0.3,0.5-0.5,1.1-0.4,1.8c-0.3,0.4-0.5,0.8-0.6,1.2c-0.4,0.9-0.3,1.9-0.4,2.9c0,0.5,0.3,1.1,0.7,1.2c0.4,0,0.8,0.2,1.2,0.1v0.1
			c-0.1,0.1-0.1,0.3,0,0.4s0.2,0.2,0.3,0.2c0.3-0.5,0.8-0.8,0.9-1.3c-0.1-0.7,0.2-1.5,0.2-2.2c0.4-0.8,0.8-1.5,0.8-2.4
			c0.2-0.5,0.5-0.9,0.5-1.5c0.3-0.5,0.7-1,0.6-1.7c0-0.1,0-0.3,0.1-0.4C44,13,44.3,12.2,44.7,11.4z"/>
		<path class="st0" d="M75.3,15.2c0.1,0,0.2,0,0.2-0.2c0.4,0.1,0.5-0.2,0.7-0.5c0.3-0.7,0.6-1.5,1-2.2c0.2-0.3,0.2-0.6,0.2-0.9
			c0.6-0.6,0.4-1.4,0.2-2.1c-0.1-0.5-0.5-1-1.2-0.9c-0.2,0-0.3-0.1-0.4,0.2l0,0l0,0l0,0h-0.1c-0.1,0.1-0.3,0.1-0.4,0
			c-0.1,0-0.1,0-0.2,0c-0.3,0-0.1,0.2-0.2,0.3c-0.2,0-0.2,0.2-0.2,0.4c-0.1,0.1-0.3,0.2-0.3,0.4c-0.1,0.2-0.3,0.4-0.4,0.6
			c-0.2,0.3-0.3,0.8-0.7,1c-0.2,0.1-0.4,0.3-0.5,0.5c0,0.2,0.1,0.3,0.2,0.4c-0.2,0.2-0.1,0.4-0.1,0.6c-0.1,0-0.1,0-0.1,0
			c-0.1,0-0.1,0.1-0.2,0.1l0.1-0.1v-0.1c-0.1,0.3-0.4,0.5-0.3,0.8c0,0.1,0,0.1,0,0.2c0,0.1,0,0.1-0.1,0.2c-0.1,0-0.2,0.1-0.1,0.2
			c0,0-0.1,0.1-0.1,0.2C72,14.5,71.9,14.7,72,15c-0.4,0-0.4,0.4-0.5,0.6c0,0.1,0,0.1,0,0.2c0,0.1,0,0.2,0,0.4
			c-0.1,0-0.2,0.1-0.2,0.2c-0.3,0-0.4,0.1-0.4,0.3c0,0.2,0.1,0.4-0.1,0.4c-0.1,0-0.1,0.1-0.2,0.2c0,0.1,0,0.1,0,0.2
			c-0.1,0.3-0.5,0.3-0.6,0.6c-0.1,0.2-0.2,0.3-0.2,0.5c-0.3,0.1-0.2,0.4-0.2,0.6c-0.1,0-0.2,0-0.3,0.1c-0.4,0.7-0.5,1.4-0.4,2.1
			c-0.2,0.3-0.1,0.7-0.2,1c-0.1,0.4,0.1,0.9,0.5,1.3c0.3,0.3,0.7-0.3,0.9,0.2c0.3-0.3,0.8,0.2,1.1-0.1c0.4-0.3,0.5-0.8,0.7-1.2
			c0.2-0.3,0-0.6-0.1-0.9c0.3-0.2,0.4-0.5,0.4-0.9c0.5-0.1,0.2-0.7,0.5-0.9c0.4,0.1,0.5-0.3,0.6-0.5c0.3-0.5,0.5-1.1,1-1.5
			c0.2-0.2,0.3-0.4,0.4-0.7c0.5-0.4,0.6-1.2,1-1.7C75.6,15.5,75.3,15.4,75.3,15.2z M69.9,19.6L69.9,19.6L69.9,19.6L69.9,19.6
			L69.9,19.6L69.9,19.6L69.9,19.6z M71.2,16.7L71.2,16.7L71.2,16.7L71.2,16.7L71.2,16.7L71.2,16.7z M75.3,15L75.3,15L75.3,15
			L75.3,15z"/>
		<path class="st0" d="M38,9.7c-0.2,0-0.1-0.4-0.3-0.4C37.6,9,37.5,8.6,37,8.7c-0.2,0-0.3-0.2-0.4-0.3c-0.1-0.2-0.2-0.4-0.4-0.6V7.7
			c-0.1,0-0.3-0.1-0.4,0.1c-0.1,0.1-0.1,0.1-0.1,0.1h-0.1L35.5,8c-0.1,0-0.2,0.1-0.2,0.2c-0.1,0-0.1,0-0.2,0c0,0,0,0,0,0.1L35,8.2
			c0.1-0.1,0.2-0.1,0-0.2c-0.2,0-0.4,0-0.5,0c0,0.2-0.1,0.4,0,0.6c0,0.1-0.1,0.1-0.2,0.2l-0.1-0.1c-0.1,0-0.2,0-0.3,0
			c-0.3,0.1-0.3,0.4-0.5,0.6C33.3,9.1,33.1,9,33,9.1c-0.6,0.6-1.4,0.7-2.1,1.1c-0.7,0.5-1,1.3-1.5,2C29,12.3,29.1,12.7,29,13
			c-0.1,0-0.1,0.1,0,0.1c-0.6,0.6-0.9,1.3-0.9,2.1c-0.4,0.5-0.7,1-0.6,1.6c-0.5,0.2-0.8,0.5-1,1c-0.2,0.6-0.6,1.2-0.9,1.8
			c0,0.2,0,0.3-0.1,0.4c-0.3,0.1-0.1,0.5-0.3,0.7c0,0.2-0.2,0.5,0,0.7c0,0.1,0.1,0.2,0.1,0.4c-0.2,0-0.2,0.2-0.2,0.3
			c-0.6,0.4-0.1,0.9-0.3,1.3c0.6,0.4,1.3,0.4,1.7,0.8c0.1,0.1,0.3-0.1,0.2-0.3c0.2-0.2,0.4-0.5,0.6-0.7c0.2,0,0.2-0.1,0.3-0.2
			c0.1-0.4,0.4-0.7,0.3-1.1c0.4-0.6,0.5-1.5,1.1-2c0.2,0.1,0.3,0.3,0.5,0.2c0,0.2,0.3,0.3,0.4,0.5c0.1,0.8,0.2,1.6,1.1,1.9
			c0.3,0.5,0.4,1.1,1.1,1.3c0.7,0.5,1.4,0.8,2.3,0.3c0.8-0.2,1.2-0.8,1.5-1.5c0.3-0.1,0.4-0.2,0.3-0.5c-0.3-0.5-0.6-1-1-1.4
			c-0.3-0.3-0.7-0.6-1.2-0.2c-0.1,0-0.1,0-0.2,0.1c-0.1,0-0.2,0-0.3-0.1c-0.1-0.5,0.1-1-0.4-1.4c0.3-0.3,0.6-0.5,0.8-0.8
			c0.2-0.2,0.6-0.5,0.4-0.9c0.1-0.1,0.1-0.2,0.2-0.3c0.1,0,0.1,0,0.2-0.1c0.3,0,0.4-0.2,0.4-0.5c0.1,0,0.2-0.1,0.1-0.2
			c0-0.1,0-0.1,0-0.2c0.1,0,0.1,0,0.2,0c0-0.1,0-0.1,0-0.2h0.1h0.1c0.9-0.5,1.2-1.4,1.5-2.4c0.1-0.2,0.2-0.4,0.4-0.6
			c0.4-0.3,0.3-0.9,0.5-1.3C38.2,11.1,38.4,10.4,38,9.7z M33.1,12.1c0.5,0.1,0.8-0.4,1.2-0.6c0-0.1,0-0.1,0-0.2
			c0.2,0.2,0.2,0.5,0.2,0.7c0,0.3,0.1,0.5,0.2,0.6c-0.5,0.6-0.9,1.2-1.2,1.8c0,0.1,0,0.2-0.1,0.4c-0.1,0-0.2,0.1-0.2,0.2
			c-0.3,0.2-0.5,0.4-0.7,0.7l0,0c-0.2,0.2-0.6,0.2-0.5,0.5l0,0c-0.1-0.1-0.1-0.1-0.2-0.2c-0.5-0.4,0-1-0.3-1.5c0,0,0,0-0.1,0
			c0-0.1,0-0.2,0-0.3c0.1,0,0.1,0,0.2-0.1c0.3-0.2,0.3-0.4,0.3-0.7v-0.1c0.1,0,0.1,0,0.2,0C32.6,13.1,32.9,12.6,33.1,12.1z
			 M31.5,14.1L31.5,14.1L31.5,14.1L31.5,14.1z M29.9,14.9c0,0,0-0.1-0.1-0.1C29.9,14.8,29.9,14.8,29.9,14.9z M34.2,15.4
			C34.2,15.4,34.2,15.3,34.2,15.4C34.2,15.3,34.2,15.4,34.2,15.4L34.2,15.4z M32.2,19.3L32.2,19.3L32.2,19.3L32.2,19.3L32.2,19.3
			L32.2,19.3L32.2,19.3z"/>
		<path class="st0" d="M91.2,11.3c0.1-0.4,0.2-0.7,0-1.1c0-0.1,0-0.1,0-0.2c-0.4-0.3-0.8-0.6-1.3-0.2c-0.2,0.1-0.3,0.3-0.5,0.4
			c-0.1-0.2,0-0.4-0.2-0.5c-0.2,0.2-0.6,0.3-0.4,0.7c-0.7,0.8-1.1,1.7-1.3,2.8c-0.2,0.1-0.3,0.2-0.4,0.5c-0.3,1.2-0.9,2.2-1.1,3.4
			c-0.1,0-0.2,0.1-0.1,0.2c0,0.1,0,0.2,0,0.4c-0.1,0.1-0.1,0.1-0.2,0.2c-0.3-0.1-0.4,0-0.4,0.3c-0.2,0-0.4,0-0.5,0s-0.2,0-0.4,0
			c-0.3-0.2-0.2-0.5-0.2-0.8c-0.1-0.7,0.1-1.5-0.1-2.2c0.2-0.8-0.3-1.5-0.2-2.2c0.1-0.9-0.2-1.7-0.2-2.5c0-0.3-0.2-0.6-0.6-0.6
			c0-0.3-0.2-0.4-0.4-0.6c-0.2-0.1-0.4,0-0.5,0.1c-0.3-0.3-0.6-0.4-1-0.3c0,0.1,0,0.1,0,0.2c-0.5-0.1-0.7,0.2-0.9,0.6
			c-0.3,0.2-0.2,0.8-0.6,0.8s-0.4,0.4-0.5,0.6c-0.3,0.6-0.1,1.2,0,1.8c-0.3,0.4-0.6,0.8-0.5,1.3c-0.2,0.4-0.4,0.8-0.5,1.3
			c-0.1,0.4-0.7,0.6-0.3,1.1c0,0.2,0,0.3,0,0.5c-0.1,0-0.2,0.1-0.2,0.2c-0.2,0-0.2,0.2-0.2,0.3c-0.3,0-0.4,0.1-0.3,0.4
			c0,0.1,0,0.1,0,0.2c-0.2,0-0.2,0.2-0.2,0.3c-0.4,0.2-0.2,0.5-0.2,0.8c0,0,0,0.1,0,0.2c-0.6,0.2-0.9,0.7-1.2,1.2
			c0.2,0.2,0.4,0.3,0.7,0.5c-0.2,0.5-0.3,1-0.5,1.4c0.2,0.3,0.5,0.3,0.7,0.4c0.1,0,0.1,0,0.2,0c0.1,0.1,0.2,0.1,0.4,0
			c0.2,0,0.2-0.2,0.4-0.2c0,0,0.1,0.1,0.2,0.1l0,0v0.1c0.3,0.2,0.5,0.1,0.7-0.2c0.5-0.6,0.8-1.3,1-2c-0.3,0-0.4,0-0.4,0
			c0.1,0,0.1-0.1,0.2-0.1C79.8,20,80,19,80.5,18c0.2-0.4,0.3-0.9,0.2-1.3c0.1-0.1,0.1-0.1,0.2-0.2c0.2,0.1,0.2,0.6,0.5,0.6v0.1
			c-0.3,1.4-0.1,2.9,0,4.3c0.1,0.2,0,0.4,0.2,0.6c-0.1,0.8,0.4,1.2,0.9,1.7c0.8,0.6,2.4,0.4,3.1-0.5c0.5-0.4,0.7-1,0.7-1.7
			c0.4,0,0.4-0.4,0.6-0.6c0.6-1.1,1.1-2.2,1.6-3.3c0.9-1.5,1.5-3.2,2.3-4.8C90.9,12.4,91,11.8,91.2,11.3z M88.8,13.7L88.8,13.7
			L88.8,13.7L88.8,13.7z M77.5,22.8L77.5,22.8L77.5,22.8L77.5,22.8L77.5,22.8z M81,15.4L81,15.4L81,15.4L81,15.4z M81,15.2L81,15.2
			L81,15.2L81,15.2z M85.5,18.6L85.5,18.6L85.5,18.6L85.5,18.6z M81.5,21.4C81.6,21.4,81.6,21.4,81.5,21.4
			C81.6,21.5,81.6,21.5,81.5,21.4C81.5,21.5,81.5,21.5,81.5,21.4z"/>
		<path class="st0" d="M25.5,16.3c-0.5-0.5,0.3-0.5,0.3-0.9c-0.2-0.1-0.3-0.3-0.2-0.5l0,0c0.2-0.1,0.2-0.2,0.3-0.4
			c0.1-0.5,0.4-0.9,0.6-1.3c0.2-0.3,0.3-0.5,0.1-0.9c0.6-0.5,0.6-0.9,0-1.7l0,0c0-0.1,0-0.1,0-0.1c-0.1-0.4-0.1-0.7,0.1-1.2
			c-0.5,0.2-0.8,0.6-1.2,0.7c-0.2-0.1,0-0.4-0.2-0.4C25.1,9.7,25,9.9,25,10c-0.4,0.4-1.1,0.7-1,1.5c-1,1.1-1.6,2.5-2.2,3.9h-0.1
			c-0.2,0.1-0.5,0-0.8,0.1l0,0c0,0,0-0.1-0.1-0.1s-0.2,0-0.3,0c0,0.1,0,0.1,0,0.2c-0.4,0.1-0.9-0.1-1.3,0.2c-0.1,0-0.2,0-0.3,0
			c-0.2-0.3-0.8,0.1-0.8-0.5c-0.1,0-0.1,0-0.2,0c0-0.1,0-0.1,0-0.2c0.1,0,0.1,0,0.2-0.1c0.2,0,0.7,0,0.6-0.2
			c-0.2-0.6,0.5-0.9,0.3-1.5c0.4-0.3,0.6-0.7,0.6-1.2c0.2-0.1,0.2-0.2,0.2-0.4c0.4-0.2-0.2-0.6,0.2-0.8c0.3-0.2,0.1-0.5-0.1-0.7l0,0
			c0-0.1-0.1-0.2-0.3-0.1c-0.1,0-0.1,0-0.2,0s-0.1,0-0.2-0.1c0-0.1-0.1-0.2-0.2-0.2l0,0l0,0c-0.1,0-0.1,0-0.2,0
			c-0.1-0.1-0.2-0.1-0.2-0.2c0-0.1,0-0.1-0.1-0.2c0-0.1-0.1-0.1-0.1-0.2c-0.3,0.1-0.8,0.1-0.8,0.7c-0.7,0.2-0.7,0.9-1.1,1.3
			c-0.5,0.4-0.4,1.2-0.8,1.6c-0.5,0.4-0.9,0.9-1,1.5c-0.5,0.6-0.7,1.4-1.3,1.9c-0.3,0.3-0.8,0.8-0.7,1.4c-0.4,0.3-0.5,0.7-0.6,1.2
			c-0.1,0.3,0,0.6-0.2,0.8l0,0c-0.2,0.1-0.2,0.2-0.2,0.4c-0.2,0-0.2,0.2-0.2,0.4c-0.3,0.1-0.3,0.4-0.5,0.6c0,0.2,0,0.3,0,0.4
			s0,0.1,0,0.2l0,0c-0.1,0.1-0.1,0.1-0.2,0.2c-0.1,0-0.1,0-0.2,0h-0.1c-0.1,0-0.1,0-0.2,0l0,0c0,0,0,0-0.1,0v-0.1h0.1
			c-0.1-0.1-0.1-0.2-0.2,0c-0.1,0-0.1,0-0.2,0.1c-0.3,0-0.5-0.1-0.7-0.2c-0.1,0-0.2,0-0.3,0.1c0,0.1,0,0.1,0.1,0.1
			c0,0.1,0,0.1,0,0.2c-0.2,0-0.2,0.1-0.3,0.2c-0.5,0-1.1-0.1-1.6,0.1H7c-0.5,0-1.1,0-1.6,0c-0.6-0.2-1.3-0.2-1.5-1
			c0-0.1-0.2-0.1-0.3-0.1c0-0.7,0-1.3,0-2c0.3-0.2,0.1-0.6,0.2-0.9l0,0C4,18.2,4,18.1,4,17.9l0,0l0,0l0,0c0.1,0,0.1,0,0.2-0.1
			c0.1,0,0.2-0.1,0.2-0.2l0,0H4.3c0-0.1,0-0.1,0.1-0.2c0.1,0,0.1-0.1,0.1-0.2c0,0,0.1-0.1,0.1-0.2c0.1,0,0.1,0,0.2,0
			c0-0.1,0-0.1,0-0.2l0,0l0,0c0,0,0,0,0,0.1c0.1,0,0.2-0.1,0.1-0.2c0.2-0.4,0.6-0.8,0.6-1.3c0-0.2,0.3-0.4,0.5-0.7
			c0.2-0.1,0.3-0.2,0.3-0.4c0.1-0.1,0.1-0.2,0.2-0.3c0.1,0,0.2-0.1,0.2-0.2c0.2-0.1,0.3-0.2,0.5-0.2c0.1-0.4,0.7-0.5,0.8-0.9
			c0.2-0.3,0.7-0.3,0.8-0.7c0.2,0,0.3,0,0.4-0.2c0.2,0,0.4-0.1,0.5-0.2c0.3,0,0.6,0.4,0.9,0c0.4,0.2,1-0.2,1.3,0.4
			c0.4-0.1,0.9-0.1,1.2-0.5c0.2-0.2,0.3-0.4,0.3-0.7c0.3-0.6,0.2-1.1-0.1-1.7c-0.1-0.2-0.3-0.4-0.5-0.3c-0.6,0-1.3-0.2-1.9,0.1
			c0,0.1,0,0.1,0,0.2c-0.1,0-0.2,0.1-0.2,0.2l0,0c-1-0.5-1.6,0.3-2.4,0.5v0.1C8,9.9,7.7,10,7.5,10.2c-0.5,0.3-1.1,0.4-1.4,1l0,0l0,0
			c-0.2,0-0.3,0-0.4,0.2c-0.1,0.1-0.4,0.1-0.2,0.4c0,0.1,0,0.1,0,0.2c-0.8,0.2-1.2,0.9-1.8,1.3c-0.1,0,0,0.2,0,0.4
			c-0.6,0.6-1.3,1-1.5,1.9c-0.1,0-0.2,0.1-0.2,0.2c-0.2,0.3-0.1,0.8-0.5,0.9c-0.3-0.1-0.5,0-0.5,0.4c-0.2,0.2-0.1,0.6-0.3,0.8
			c-0.3,0.4-0.5,1-0.3,1.6c-0.1,0.2-0.2,0.3-0.1,0.6c0,0.3,0,0.6,0,0.9c-0.1,0-0.2,0.1-0.1,0.2c-0.1,0.6,0.1,1.1,0.2,1.6
			c0,0.3,0.2,0.5,0.6,0.4c0.2,0.2,0.4,0.4,0.7,0.4c0.4,0.9,0.6,1,1.5,0.8c0.1,0.3,0.4,0.1,0.6,0.2C3.9,25,4.4,25.3,5,25.2
			c0.7,0.3,1.4,0.6,2,0c0.2,0,0.3-0.1,0.4-0.3c0.1,0,0.2,0,0.3,0c0.8,0.7,1.4,0.1,2-0.2c0.1,0.2,0.3,0.2,0.4,0
			c0.4-0.1,0.7-0.6,1.3-0.3c0.1,0,0.2,0,0.4,0c0.1,0,0.1-0.1,0.2-0.1l0.1,0.1c0.2,0,0.3,0.3,0.5,0.3c0.1,0,0.2,0,0.3,0
			c0.5-0.1,0.9-0.3,1.3-0.6c0.1-0.2-0.1-0.3-0.2-0.5c0-0.4,0-0.9,0-1.3c0.3-0.6,0.5-1.3,0.9-1.9c0.3-0.6,0.8-0.8,1.4-0.7
			c0.5,0,1.1,0.1,1.6-0.2c0.4-0.1,1,0.2,1.3-0.4c0.2,0,0.3,0,0.5,0c0.1,0.1,0.4,0.2,0.3,0.3c-0.3,0.4,0,0.8,0.1,1.2
			c-0.1,0.2,0.1,0.4,0.1,0.5c0,0.4,0.1,0.8,0.5,0.9c0,0,0,0.1-0.1,0.1c-0.1,0.2-0.1,0.5,0,0.7c0.2,0.4,0.4,0.6,0.7,0.8
			c0.4-0.1,0.3-0.6,0.6-0.8c0.4-0.6,0.6-1.3,0.6-2c0.2-0.2,0.2-0.5,0.3-0.8c0.3-0.6,0.4-1.3,1.1-1.7c0.2,0.1,0.3-0.2,0.5-0.2
			c0.4-0.5,0.6-1,0.8-1.6C25.6,16.6,25.5,16.5,25.5,16.3z M18.9,16.8L18.9,16.8C18.9,16.9,18.9,16.9,18.9,16.8
			C18.8,16.9,18.9,16.8,18.9,16.8z M23.3,16.8L23.3,16.8L23.3,16.8z M22.2,16.5L22.2,16.5L22.2,16.5L22.2,16.5z M18.9,15.9
			L18.9,15.9L18.9,15.9L18.9,15.9z M6.3,13.2L6.3,13.2L6.3,13.2L6.3,13.2z M1.5,22.2L1.5,22.2L1.5,22.2L1.5,22.2z M2.1,16.7
			L2.1,16.7L2.1,16.7L2.1,16.7z M8.4,22.7L8.4,22.7L8.4,22.7L8.4,22.7z"/>
		<path class="st0" d="M103.9,15L103.9,15c-0.1-0.1-0.1-0.1-0.1-0.2c-0.1-0.3-0.2-0.6-0.6-0.6c0-0.1,0-0.1-0.1-0.2
			c-0.1-0.4-0.4-0.7-0.3-1.1c0.2-1.1,0-2.1,0-3.2c0-0.5-0.1-0.9-0.4-1.3c-0.1-0.4-0.3-0.7-0.8-0.7c-0.6,0-1.2,0-1.7,0.3
			c-0.3,0.1-0.6,0.1-0.7,0.3c-0.5,0.1-0.6,0.6-1,0.8s-0.8,0.5-1,0.9h-0.1c-0.4,0.3-0.8,0.5-0.9,1.1c0.1,0.3-0.1,0.4-0.2,0.5
			c-0.5,0.4-1,0.9-1.4,1.5c0,0.1,0,0.1-0.1,0.2c-0.4,0.3-1,0.4-1.3,0.9c-0.2,0-0.5,0.1-0.5,0.3c-0.1,0.7-0.5,1.2-0.6,1.8
			c0,0.1,0,0.1,0.1,0.2c0,0,0,0,0.1-0.1l0,0l0,0c0,0,0,0-0.1,0c0,0.1,0,0.1,0,0.2c-0.1,0-0.1,0.1-0.1,0.2c-0.3-0.1-0.5,0-0.6,0.3
			c-0.1,0.2-0.2,0.5-0.4,0.7c-0.2,0.3-0.4,0.6-0.6,0.9c-0.3,0.2,0,0.5,0,0.7c-0.5,0.2-1,0.9-1.1,1.5c0,0-0.1,0.1,0,0.1
			c-0.8,0.5-1.1,1.1-0.7,1.9c0.1,0.5-0.1,1.1,0,1.6c0.1,0.6,0.5,0.1,0.8,0.2c1.1,0.3,1.6-0.1,1.9-1.2c0-0.1,0.1-0.3,0.2-0.4
			c0.3-0.2,0.3-0.7,0.5-0.9c0-0.1,0-0.1,0-0.2c0.2-0.6,0.5-1.1,0.7-1.7c0.4-0.2,0.5-0.7,0.6-1.1c0.2-0.1,0.2-0.4,0.4-0.5
			C94,18.5,94,18.3,94,18l0,0c0.2-0.2,0.3-0.4,0.5-0.6h0.1l0,0c0,0.1,0,0.2,0.1,0.2c0.6,0.1,1.2,0.1,1.8-0.1c0-0.1,0-0.1,0-0.2
			c0.8,0.2,1.6-0.1,2.4-0.1c0,0.9,0,1.8,0,2.7c0,0.5-0.1,1,0.2,1.5c0.1,0,0.1,0.1,0.2,0.1c0-0.1,0-0.2,0-0.2
			c0.2,0.1,0.4,0.3,0.6,0.1c0.5-0.3,0.9,0,1.3,0.1c0.3,0,0.4-0.1,0.4-0.4c0.2,0,0.2-0.2,0.2-0.3c0.5-0.5,0.2-1.1,0.2-1.7
			c0.1-0.9,0.2-1.9,0.9-2.6c0.4-0.1,0.4-0.6,0.8-0.8l0,0C104,15.6,103.9,15.3,103.9,15z M98,12.6L98,12.6L98,12.6L98,12.6L98,12.6
			L98,12.6L98,12.6L98,12.6L98,12.6z M98.2,12.8L98.2,12.8c0-0.1,0-0.1,0-0.2c0,0,0-0.1,0-0.2c0.3,0.1,0.6,0.1,0.7-0.3
			c0.2,0,0.5,0,0.6,0.3l0,0c-0.1,0.2,0,0.4-0.1,0.6c-0.3,0.2-0.6,0.3-0.9,0.4l0,0c-0.1-0.1-0.2-0.1-0.3-0.2c0.1-0.1,0.1-0.2,0.1-0.3
			C98.3,12.9,98.3,12.8,98.2,12.8z M98.2,12.5L98.2,12.5C98.2,12.5,98.2,12.4,98.2,12.5C98.2,12.4,98.2,12.5,98.2,12.5z M97.4,15.8
			L97.4,15.8L97.4,15.8L97.4,15.8z M98,15.9L98,15.9L98,15.9L98,15.9z M99.5,19.2C99.5,19.2,99.5,19.3,99.5,19.2
			C99.5,19.3,99.5,19.3,99.5,19.2L99.5,19.2z M100,20.4L100,20.4L100,20.4L100,20.4L100,20.4z"/>
		<path class="st0" d="M70.6,12.6c0.1-0.1,0.2-0.2,0.3-0.4c0.1,0,0.2,0,0.3,0c0.2,0,0.4-0.1,0.4-0.3c0.1,0,0.1,0,0.2-0.1
			c0.2-0.3,0.6-0.1,0.8-0.2c-0.1-0.2-0.2-0.4-0.3-0.6c-0.4-0.1-0.8-0.5-1.3-0.1c-0.1,0-0.1,0-0.2,0c0,0-0.1,0-0.2,0
			c0-0.1,0-0.1-0.1-0.2c0-0.2-0.2-0.2-0.3-0.2c0-0.1,0-0.1,0-0.2c0-0.1,0-0.2,0-0.4c0-0.1,0-0.3,0-0.4c-0.3-0.2-0.7,0-1-0.3
			c0-0.1-0.1-0.2-0.1-0.2s0,0,0,0.1v0.1l0,0l0,0H69v0.1l0,0l0,0c-0.1,0-0.1,0-0.2,0c-0.2-0.1-0.1-0.4-0.4-0.5c0,0.2-0.1,0.4-0.2,0.5
			c-0.1,0-0.1,0.1-0.2,0.1s-0.1,0-0.2,0c-0.3-0.1-0.6-0.2-0.9-0.2C67,9.1,67.2,9,67.1,8.8c-0.1-0.2-0.3-0.3-0.5-0.3
			C66.4,8.7,66.3,9,66,9.1c-0.3-0.1-0.1-0.5-0.5-0.5c-0.2,0-0.6-0.1-0.8,0.2c-0.2,0-0.5,0-0.7,0.1c-0.1-0.1-0.2-0.1-0.3-0.2
			c-0.1-0.2-0.2-0.1-0.2,0.1c-0.1,0-0.1,0-0.2,0c-0.2,0.3-0.4,0.2-0.5,0c-0.1,0-0.1,0-0.2,0c0-0.1-0.1-0.2-0.2-0.1
			c-0.1,0-0.1,0-0.2,0c-0.4-0.1-0.7-0.2-1.1,0.1v0.1l0,0V8.8c-0.6-0.3-1.2-0.3-1.9-0.4c-0.2,0.7-1,0.5-1.3,1l0,0
			c-0.1,0-0.2,0.1-0.2,0.2c-0.2,0.3-0.3,0.6-0.2,0.9c-0.1,0-0.2,0.1-0.2,0.2C56.8,10.6,57,10.2,57,10h-0.1c-0.4-1-1.3-1.2-2.2-1.3
			c0-0.1,0-0.1-0.1-0.1c-1.5,0-2.9,0.6-4.3,0.9c0,0-0.1,0.2-0.1,0.3c-0.1,0-0.3,0-0.4,0.2c-0.7-0.1-1,0.1-1.1,0.9
			c0,0.3-0.4,0.3-0.5,0.6c-0.4,0.6-0.3,1.6,0.3,2v0.1h0.1c0.1,0,0.1,0,0.2,0c-0.1,0-0.1,0-0.2,0c0,0.9,0.5,1.5,1.2,2
			c-0.1,0.7,0.5,0.7,0.9,1c0.5,0.4,0.8,1,1.4,1.3c0.2,0.4,0.3,1,0.9,1.1c0.2,0,0.3-0.1,0.5-0.3l0,0c-0.2,0.2-0.3,0.2-0.5,0.2
			c0.1,0.1,0.2,0.2,0.4,0.2c0.3,0.5,0.2,1.7-0.1,2.2c-0.7,0.4-1.5,0.5-2.2,0.7c-0.1,0.2-0.2,0.3-0.4,0.4c-0.1-0.1-0.1-0.1-0.2-0.2
			c-0.1,0.1-0.3,0.3-0.4,0.4c-0.1,0-0.3,0-0.4,0.2h-0.1v-0.1c-0.3-0.3-0.6-0.6-0.9-0.8c-0.4-0.1-0.8-0.5-1.3-0.4
			c-0.3-0.2-0.5-0.3-0.8-0.5c-0.1-0.1-0.1-0.2-0.2-0.4c0.1-0.2,0.2-0.3,0.1-0.5c-0.2-0.6-0.5-1-1-1.4c-0.1,0.1-0.2,0.2-0.3,0.3
			c-0.1-0.1-0.2,0-0.2,0.1l0,0c-0.1,0.1-0.2,0.1-0.4,0.1C44.5,19,44.3,19,44.1,19c0,0.1,0,0.1,0,0.2c0,0.2,0,0.4,0,0.5
			c-0.4,0.3-0.4,0.7-0.3,1.1l0,0c0,0.1,0,0.1,0,0.2s0,0.1,0,0.2c0,0.2-0.2,0.4,0.1,0.6c0,0.2,0,0.3,0.2,0.4c0.1,0.1,0.1,0.2,0.2,0.3
			c0.1,0.3,0.3,0.6,0.7,0.6c0,0.1,0,0.2,0.2,0.2c0.4,0.6,1.2,0.7,1.7,1.3c0.7,0.3,1.4,0.7,2.2,0.4c0,0.1,0.1,0.2,0.2,0.1h0.1h0.1
			c0.1,0.2,0.2,0.3,0.4,0.4c0.2,0.2,0.5,0.2,0.8,0.2c0.2,0,0.5,0,0.7,0c0.5,0,0.9,0.1,1.3-0.1c0.3-0.1,0.5-0.1,0.7-0.3
			c0.2,0,0.4,0,0.5-0.1c0.2,0,0.3,0.1,0.4-0.2c0.1-0.1,0.1-0.2,0.2-0.3c0.1,0,0.1,0,0.2,0c0.1,0,0.1,0,0.2,0
			c0.1-0.1,0.1-0.1,0.2-0.1c0.5-0.1,0.8-0.4,0.7-0.9l0,0l0,0l0,0c0.2,0,0.5,0.1,0.6-0.2c0.2-0.5,0.5-0.9,0.5-1.5
			c0.3-0.4,0.4-0.8,0.3-1.3c0-0.1,0-0.1,0-0.2c0.2-0.1,0.2-0.2,0.2-0.4c-0.1-0.1-0.1-0.1-0.2-0.2c0-0.2,0.1-0.5-0.2-0.6
			c0-0.1,0-0.1,0-0.1c0-0.1,0-0.1,0-0.2c0.1-0.3-0.1-0.5-0.3-0.6c0-0.1-0.1-0.2-0.2-0.2c0.1-0.2-0.1-0.3-0.2-0.5
			c-0.1-1-0.8-1.7-1.6-2.3c-0.2-0.3-0.2-0.7-0.7-0.5c-0.3-0.7-0.9-1.1-1.3-1.7c-0.3-0.4-0.9-0.7-0.2-1.2c0.1,0.2,0.4,0.2,0.6,0.1
			c0.7,0.1,1.4,0.4,2,0.7c0.5,0.2,1,0.3,1.5-0.1c0.6,0,0.6-0.7,1.1-0.8l0.1,0.1c0.2,0.5,0.6,0.4,1,0.4c0.4,0.2,0.8,0.5,1.3,0.3
			c0.1,0,0.1,0,0.2,0c0.1-0.1,0.2-0.1,0.2-0.2c0.4,0.1,0.7,0,1.1,0c0.2,0,0.5-0.1,0.6,0.1v0.1c-0.1,0.3,0,0.6-0.1,0.9
			c-0.4,0.7-0.7,1.5-0.8,2.3c0,0.3-0.6,0.8-0.1,1.1c-0.1,0.3-0.2,0.6-0.2,0.9c0,0.4,0,0.9-0.3,1.1c-0.7,0.5-0.4,1.1-0.2,1.7
			c-0.5,0.3,0.2,0.8-0.2,1.1c-0.2,0.3-0.2,0.6-0.1,0.9c0.4,0.1,0.8-0.1,1.2,0c0.2-0.3,0.3-0.5,0.5-0.7c0.1-0.1,0.1-0.1,0.2-0.1
			c0,0.1,0,0.2,0,0.3c0,0.2,0,0.3,0.2,0.5c0.1,0.1,0.2,0.2,0.3,0.1c0.3-0.4,0.7-0.7,0.7-1.3c0.1-0.1,0.2-0.2,0.2-0.4
			c0.3-0.8,0.3-1.7,0.5-2.6c0.4-1.5,0.9-3.1,1.3-4.6c0.5-0.3,0.2-0.9,0.6-1.3c0.2,0,0.3-0.3,0.5-0.1v-0.1c0.2,0.1,0.2-0.1,0.4-0.2
			c0.6,0.3,1.2,0,1.8,0c0,0.3,0.3,0.1,0.4,0.3C69.3,12.6,70,12.6,70.6,12.6z M70.6,11.7L70.6,11.7L70.6,11.7L70.6,11.7z M60.3,10.6
			L60.3,10.6L60.3,10.6L60.3,10.6z M49.2,25L49.2,25L49.2,25L49.2,25L49.2,25L49.2,25z M44.5,20.7L44.5,20.7c0,0.1-0.1,0.1-0.1,0.1
			L44.5,20.7c-0.1-0.1-0.1-0.1-0.2-0.2h0.1l0.1-0.1v0.1C44.4,20.5,44.5,20.6,44.5,20.7z M44,21.8C44,21.9,44,21.9,44,21.8
			C44,21.9,44,21.9,44,21.8C44,21.9,44,21.9,44,21.8L44,21.8z M52.4,16.2L52.4,16.2L52.4,16.2L52.4,16.2z M53.9,18L53.9,18
			C53.9,18.1,53.9,18.1,53.9,18C53.9,18.1,53.9,18,53.9,18z M52.2,13.9C52.2,13.9,52.1,13.9,52.2,13.9L52.2,13.9L52.2,13.9z
			 M43.8,20.9L43.8,20.9L43.8,20.9C43.9,21,43.9,21,43.8,20.9L43.8,20.9L43.8,20.9L43.8,20.9z M50.9,25.4
			C50.9,25.4,50.8,25.3,50.9,25.4c-0.1-0.1-0.1-0.1-0.1-0.1L50.9,25.4L50.9,25.4L50.9,25.4c0-0.1,0-0.2-0.1-0.4c0.1,0,0.2,0,0.3,0
			v0.1l0.1,0.1C51,25.3,50.9,25.3,50.9,25.4L50.9,25.4z M53.2,25L53.2,25L53.2,25c-0.1,0-0.2,0-0.2-0.1h-0.1c-0.2,0-0.4,0.1-0.5,0.2
			l-0.1,0.1h-0.1c-0.2-0.2-0.4-0.2-0.7,0c0-0.1,0-0.1-0.1-0.2c0,0-0.1,0-0.2,0c0,0,0-0.1-0.1-0.1l0,0l0,0c0,0,0,0,0.1,0.1
			c0.1,0,0.2,0,0.2,0c0.4,0,0.7,0,1.1,0c0.1,0,0.3,0,0.4-0.1c0.1,0,0.1-0.1,0.1-0.1C53,24.9,53.1,25,53.2,25
			C53.3,24.9,53.2,24.9,53.2,25z M56.4,18.5L56.4,18.5L56.4,18.5L56.4,18.5z"/>
	</g>
	<g>
		<path class="st0" d="M163.4,13.6c0-0.2,0.3-0.3,0.2-0.6c0.1-0.1,0.1-0.2,0.1-0.3c0,0,0-0.1-0.1-0.1c0.3-0.2,0.5-0.5,0.7-0.8
			s0.1-0.6-0.3-0.6c-0.2,0-0.5-0.3-0.7,0c-0.3,0.4-0.9,0.2-1.3,0.6c-0.3,0.1-0.4,0.3-0.5,0.5c-0.3,0.2-0.2,0.5-0.2,0.8
			c-0.7,0.2-0.7,0.8-0.9,1.3c-0.1,0.1-0.2,0.2-0.1,0.4c0,0.1-0.1,0.2-0.1,0.3c-0.2,0.1-0.2,0.2-0.2,0.4c-0.2,0.1-0.2,0.4-0.4,0.6
			c-0.5,0-0.3,0.5-0.4,0.7c-0.4,0.6-1,1-1.3,1.7c-0.1-0.1-0.1-0.2-0.3-0.2c0.1-0.7-0.2-1.3-0.4-1.9c-0.2-0.2,0-0.6-0.3-0.8
			c0.3-0.7,0.2-1.4-0.4-2c0-0.1,0-0.2-0.1-0.3c0-0.1,0-0.1,0-0.2c0.4-0.6,0.1-1.2,0-1.9c0.2-0.3,0-0.6-0.2-0.9
			c0.1-0.3,0-0.5-0.2-0.7c-0.3,0.1-0.5,0.1-0.8,0c-0.5-0.1-1.2-0.7-1.5,0.3c-0.3,0.4-0.5,0.8-0.6,1.3c-0.5,0.2-0.7,0.7-0.8,1.1
			c-0.3,0.3-0.5,0.6-0.4,1.1c0.1,0,0.2,0,0.2,0c-0.1,0-0.1,0-0.2,0c-0.1,0.2-0.3,0.4-0.4,0.7c-0.3,0.9-0.4,1.9-1.1,2.7
			c-0.2,0.3-0.5,0.5-0.5,0.9c0,0.1,0,0.2,0,0.4c-0.1,0.2-0.1,0.3-0.2,0.5c-0.1,0-0.2,0.1-0.1,0.3c0,0,0,0.1,0,0.2
			c-0.1,0-0.2,0.1-0.2,0.2c-0.3,0.1-0.1,0.2-0.1,0.4c-0.5,0.7-1.1,1.4-0.6,2.4c-0.5,0.3-0.1,0.6,0,0.9c-0.3,0.3-0.3,0.3,0.3,1.1
			c0.5-0.6,1.2,0.1,1.8-0.3c0-0.2,0-0.4,0.1-0.6c0.2,0,0.4,0,0.6-0.1c0-0.7,0.5-1.2,0.7-1.8c0.6-0.4,0.5-1.1,0.7-1.7
			c0.6-0.5,0.7-1.2,0.9-1.9c0.1-0.1,0.2-0.1,0.4-0.2c0.1,0.1,0.2,0.2,0.3,0.2c0,0.1,0,0.1,0.1,0.2c0,0.2,0,0.5,0,0.7
			c0,0.9,0.4,1.6,0.8,2.4c0.1,0.2,0.4,0.6,0.8,0.6c0.1,0.4-0.5,0.9,0,1.3c0.1,0.6,0.3,1,0.7,1.4c0.1,0.2,0.1,0.5,0.4,0.6
			c0.5,0,0.6-0.5,0.9-0.7c0.3,0,0.7,0,0.9-0.4c0.5-0.3,0.6-0.8,0.7-1.3c0.3-0.1,0.2-0.3,0.3-0.5c0.3-0.8,0.3-1.7,0.8-2.4
			c0.3-0.1,0.1-0.4,0.3-0.6c0-0.3,0.1-0.5,0.2-0.8c0.2-0.7,0.8-1.2,0.8-2C162.7,15.1,163.1,14.4,163.4,13.6z M163.4,12.6L163.4,12.6
			L163.4,12.6L163.4,12.6z M155.6,15.3L155.6,15.3L155.6,15.3L155.6,15.3z M160.1,17.6L160.1,17.6L160.1,17.6L160.1,17.6L160.1,17.6
			L160.1,17.6L160.1,17.6L160.1,17.6z M151.7,17.6L151.7,17.6L151.7,17.6L151.7,17.6z M151,18.3C151,18.3,151,18.4,151,18.3
			C151,18.4,151,18.4,151,18.3L151,18.3L151,18.3L151,18.3L151,18.3z M152,16.6L152,16.6L152,16.6L152,16.6z M149.9,20.5L149.9,20.5
			C149.9,20.6,149.9,20.6,149.9,20.5L149.9,20.5z M160.1,21.3L160.1,21.3L160.1,21.3L160.1,21.3z"/>
		<path class="st0" d="M143.4,5c0.1,0.1,0.2,0.3,0.4,0.1c0.4-0.4,0.5,0.2,0.8,0.2c0.2-0.1,0.2-0.2,0.2-0.4c0.3-0.2,0.6-0.1,0.9-0.2
			c0.3,0.3,0.7,0.6,1,0.1c0.4,0.1,0.2,0.5,0.4,0.6c0.4-0.4,0.9-0.6,1-1.2c0.3,0,0.2-0.2,0.2-0.4c0.2-0.1,0.2-0.4,0.3-0.6
			c0-0.1,0-0.1,0-0.2c0.1-0.1,0.1-0.2,0-0.4c0-0.1,0-0.1,0-0.2c0.2-0.3,0.3-0.6,0.2-0.9c-0.6,0.1-1-0.7-1.7-0.3
			c-0.1,0-0.2,0-0.2,0.1c-0.4,0.2-0.3-0.4-0.5-0.3c-0.1,0-0.1,0-0.2,0c0-0.1-0.1-0.2-0.2-0.1c-0.1,0-0.1,0-0.2,0l0,0
			c-0.2-0.2-0.1-0.5-0.3-0.8c-0.1,0.5-0.3,0.3-0.4,0.2l0,0c0,0,0-0.1-0.1-0.1s-0.1,0-0.1,0.1c-0.2-0.1-0.4-0.3-0.6,0
			c-0.1,0.3-0.5,0.4-0.5,0.7c-0.1,0.1-0.3,0.2-0.3,0.4c0,0.1,0,0.1,0,0.2s-0.1,0.2-0.1,0.4c-0.2,0-0.2,0.1-0.3,0.2
			c-0.2,0.5,0.1,1-0.1,1.4C142.7,4.1,143.2,4.5,143.4,5z M148.1,3.2L148.1,3.2L148.1,3.2L148.1,3.2z"/>
		<path class="st0" d="M148.8,12.8c0-0.4,0.1-0.8-0.2-1.1c0-0.3-0.4-0.4-0.4-0.8c-0.2,0.1-0.1,0.3-0.1,0.4c-0.1-0.1-0.2-0.2-0.3-0.3
			c-0.3,0-0.4,0.5-0.8,0.5c-0.1-0.1-0.2-0.3-0.4-0.4c-0.1,0-0.3,0-0.4,0.1c0-0.1,0-0.1,0-0.2c-0.2,0.3-0.3,0.5-0.4,0.8
			c-0.1,0.2-0.2,0.4-0.2,0.6c-0.1,0.3,0,0.6,0,0.9c0,0.1,0,0.3,0.1,0.4c0,0.3,0,0.6,0,0.9c0,0.1,0,0.1,0,0.2c0,0.1-0.1,0.3-0.1,0.4
			c-0.3,0.8-1.1,1.3-1.2,2.2c-0.3,0.2-0.4-0.1-0.6-0.4c0.1,0.5,0,0.8-0.3,1.2c-0.2,0.2-0.6,0.4-0.4,0.8c0,0,0,0.1,0,0.2
			c-0.1,0-0.2,0.1-0.2,0.2c-0.2,0.1-0.3,0.2-0.5,0.2c-0.7,0.1-1,0.7-1.5,1c-0.3,0.1-0.6,0.2-0.9,0.3c-0.1-0.1-0.2-0.3-0.4-0.4
			c0.1-0.6,0-1.2,0-1.8c0.1-0.2,0.2-0.2,0.3-0.5c0.1-0.6,0.2-1.3,0.2-1.9c0.2-0.1,0.1-0.4,0.3-0.5c0.3-0.7,0.7-1.4,0.5-2.3
			c0.5-0.9,0.9-1.7,0.6-2.8c0.1-0.3,0-0.5-0.3-0.6c-0.4-0.1-0.5-0.4-0.7-0.7c-0.3,0.1-0.5,0.1-0.8,0c-0.2,0.3-0.4,0.4-0.4,0.7
			c-0.3,0.4-0.5,0.9-0.7,1.3c-0.4,0.7-0.6,1.5-0.8,2.2c-0.3,0.5-0.2,1.2-0.5,1.7c-0.3,0.6-0.3,1.3-0.5,2c-0.4,1.5-0.3,2.9-0.1,4.4
			c0,0.5,0.3,0.9,0.6,1.3c0.2,0.2,0.4,0.2,0.7,0.2c0.1,0.1,0.1,0.2,0.2,0.3c0,0.2,0.1,0.3,0.3,0.4c0.9,0.6,1.9,0.6,2.8,0.5
			c0.1,0,0.2,0,0.4,0c0.4-0.2,0.9-0.3,1.3-0.4c0-0.2,0.2-0.3,0.4-0.5c0.2-0.1,0.2-0.3,0.2-0.5c0.1-0.2,0.3-0.3,0.4-0.5
			c0.8-0.3,1.3-1,1.9-1.7c0.3-0.3,0.6-0.6,0.5-1.1c0.1-0.1,0.2-0.2,0.4-0.3c0.2,0,0.2-0.2,0.2-0.3l0,0l0,0c0-0.1,0-0.2,0.1-0.3l0,0
			c0.5-0.3,0.7-0.8,0.9-1.3c0.4-1,0.9-2,1-3.1C149,14,149.2,13.3,148.8,12.8z M139.2,15L139.2,15L139.2,15L139.2,15z"/>
		<path class="st0" d="M203.9,16c-0.7,0.1-1.2-0.6-2-0.4c-0.7-0.3-1.2-0.8-2-0.7c-1.2,0.2-2.4,0.1-3.6,0.1c-0.2,0.2-0.3-0.1-0.5-0.2
			c0.1-0.7,0.2-1.4,0.5-2.1c0.2,0,0.5-0.1,0.7-0.1c0.4,0.1,0.8,0.1,1.2,0c0.2,0.2,0.5,0.1,0.8,0.2c0.7,0,1.4,0,2.1,0
			c0.4,0,0.8,0.2,1.2-0.2c0.1,0,0.1,0,0.2,0c0.3,0.1,0.3-0.2,0.4-0.3c0.2-0.3,0.6-0.1,0.7-0.4c0.5-0.1,1.1,0.2,1.6-0.2
			c0-0.1,0-0.2,0.1-0.4c0.1,0,0.3,0,0.3-0.2c0-0.1,0-0.1,0-0.2c0-0.1,0-0.1,0-0.2c-0.3-0.6-0.8-0.9-1.5-0.9
			c-0.3-0.3-0.2,0.3-0.4,0.2c-0.1-0.1-0.2-0.2-0.3-0.3c0-0.2,0-0.4-0.3-0.3c-0.2,0-0.4,0-0.6,0c0-0.3-0.3-0.4-0.5-0.4
			c-1.6-0.1-3.2-0.2-4.9-0.3c-0.6-0.2-1.1-0.4-1.7-0.5c-0.4-0.1-0.8,0.1-0.6,0.7c-0.2,0.2-0.4,0.4-0.5,0.6c-0.3,0.3-0.1,0.6-0.1,0.9
			c0,0.1-0.1,0.2,0,0.4c-0.2,0.3-0.4,0.6-0.6,0.9c-0.4,0.3-0.4,0.8-0.4,1.2c-0.5,1.3-0.7,2.7-1,4.1c-0.2,0.3-0.1,0.6-0.1,0.9L192,18
			c0,0.1,0,0.2,0,0.4c0,0.1,0,0.2,0,0.2c0,1-0.1,2,0,3.1h0.1c0.1,0.3,0.4,0.4,0.4,0.7c-0.3,0.7-0.1,1.6,0.3,1.7
			c0.8,0.2,1.6,0.5,2.5,0.4c0.2,0.4,0.5,0.3,0.8,0.2c0.6-0.1,1.2-0.1,1.8,0c0.9,0.1,1.7-0.1,2.5-0.6h0.1h0.1c0-0.1,0.1-0.2,0.1-0.2
			v-0.1c0.2-0.2,0.5-0.2,0.5-0.6l0,0l0,0v-0.1c0.1-0.2,0.3-0.3,0.4-0.5c0.2-0.2,0.4-0.3,0.1-0.6c-0.7-0.3-1.5,0-2.1-0.6
			c0-0.1-0.2,0-0.3,0s-0.1,0-0.2,0l0,0l0,0c-0.1,0-0.1,0.1-0.2,0.1c-0.1,0-0.1,0-0.2,0c-0.1,0-0.2,0-0.2,0.1
			c-0.1-0.1-0.1-0.1-0.2-0.2c-0.1-0.3-0.4-0.2-0.5-0.2c-0.9,0.1-1.8-0.2-2.8-0.2v0.1c-0.1,0-0.2,0-0.4-0.1c0-0.2,0-0.3,0-0.5l0,0
			c0.2-0.2,0.2-0.4,0.2-0.7c0-0.1,0-0.1,0-0.2c0.2-0.2,0.1-0.6,0.3-0.7c0.1,0,0.2,0,0.3,0c0.6,0.1,1.2,0,1.8,0
			c0.1,0,0.2-0.1,0.2-0.1l0,0c0.7,0.1,1.5,0.2,2.1-0.4c0.2,0,0.4,0,0.5,0c0.4,0.2,0.7-0.3,1.1-0.2c0.2-0.2,0.5-0.2,0.8-0.3
			c0.3-0.1,0.6-0.2,0.7-0.6C203.4,17.1,203.8,16.5,203.9,16z M196.3,8.9L196.3,8.9L196.3,8.9L196.3,8.9z M194.3,19.5L194.3,19.5
			L194.3,19.5z M199.3,10.6L199.3,10.6L199.3,10.6L199.3,10.6z M199.1,10.6L199.1,10.6L199.1,10.6L199.1,10.6z M204.9,10.9
			c0,0.1,0,0.2,0.1,0.2c-0.1,0-0.2,0-0.3,0s-0.1-0.1-0.2-0.1C204.6,11,204.7,11,204.9,10.9z M195.8,9.3L195.8,9.3L195.8,9.3
			L195.8,9.3z M201.9,15.7L201.9,15.7L201.9,15.7L201.9,15.7L201.9,15.7L201.9,15.7L201.9,15.7z M200.6,12.6L200.6,12.6h0.1
			C200.7,12.6,200.7,12.6,200.6,12.6z"/>
		<path class="st0" d="M136.8,7.5c-0.8-0.1-0.5-1.2-1.3-1.3c-0.1,0.1-0.3,0.2-0.4,0.5c-0.3,0.1-0.3-0.3-0.6-0.3
			c-0.6,0.3-1,0.8-1.4,1.3c-1.1,0.9-2.2,1.8-3.1,3c-0.2,0.3-0.4,0.6-0.7,0.9c-0.9,0.7-1.8,1.5-2.4,2.4c-0.2,0.3-0.8,0-0.8,0.6
			c-0.3,0.4-0.7,0.6-1.1,0.7c-0.5-0.4-0.5-1-0.9-1.5c0,0.1,0,0.1,0,0.2c0-0.1,0-0.1,0-0.2c0-0.2-0.2-0.4-0.2-0.6
			c-0.1-1.1-0.5-2.2-0.4-3.3s-0.5-1.4-1.4-1.7c-0.3-0.1-0.6-0.4-0.8,0.2c-0.6,0-1.1,0-1.1,0.8c-0.1,0.1-0.2,0.2-0.2,0.3
			c-0.6,0.5-0.4,1.3-0.5,1.9c-0.2,0.3,0.1,0.6-0.2,0.9c-0.2,0.7-0.4,1.4-0.5,2.1c-0.3,0.5-0.3,1.1-0.2,1.6c-0.2,0-0.2,0.2-0.2,0.4
			c-0.2,0-0.3,0.1-0.4,0.3c-0.6,1.1-0.9,2.3-1.4,3.3c-0.3,0.6-0.7,1.1-0.7,1.8c-0.1,0.3-0.4,0.5-0.4,0.9l0,0
			c-0.3,0.9-0.6,1.8-0.1,2.8c0,0.1,0,0.1,0,0.2c0.1,0.7,0.8,0.2,1.2,0.5c0.2,0.1,0.5,0,0.5-0.3c0.5-0.5,1.2-1,1.3-1.8
			c0.3-0.2,0.2-0.4,0.2-0.7c0.1,0,0.2-0.1,0.2-0.2s0-0.2,0-0.3c0.2-0.1,0.2-0.2,0.2-0.4v-0.1c0.2,0,0.3,0,0.4-0.3
			c0.5-1,1.1-2,1.4-3.1c0.2-0.7,0.6-0.6,1.1-0.4c0.1,0,0.3,0,0.4,0.2s0.4,0.3,0.5,0.6c0.3,0.1,0.3,0.5,0.6,0.7
			c0.1,0.5,0.5,0.5,0.9,0.4c0.6-0.2,1.2-0.2,1.7-0.6c0.2-0.2,0.5-0.4,0.6-0.6c0.4-0.5,1-0.8,1.1-1.5l0,0l0,0c0.1,0.1,0.3,0,0.4-0.2
			c0.7-0.9,1.5-1.6,2-2.5c0.2-0.1,0.3-0.2,0.4-0.4c0.5,0.1,0.7-0.4,1-0.5c0,0.3,0,0.6,0.1,0.8c-0.5,0.8-0.6,1.8-0.9,2.8
			c0,0.9-0.5,1.7-0.6,2.6c-0.2,0.1-0.2,0.3-0.2,0.5c-0.1,1-0.3,1.9-0.2,2.9c0.1,0.1,0.1,0.1,0.1,0.2c0,0.4-0.1,0.7,0.1,1
			c0.5,0.2,0.6-0.3,0.9-0.6v0.1c0.2,0.3,0,0.9,0.7,0.7c0.2-0.5,0.1-1.1,0.4-1.6c0,0,0-0.1,0-0.2c0.1-0.1,0.2,0.3,0.4,0
			c0.7-0.4,0.5-1,0.4-1.5c0.3-0.3,0.6-0.7,0.6-1.2c0.4-0.2,0-0.6,0.3-0.8c0.3-0.2,0.3-0.6,0.4-0.9c0.2-0.8,0.4-1.7,0.6-2.6
			c0.5-1.4,0.9-2.9,1.4-4.3c0.1-0.3,0.2-0.6,0.1-0.9c0-0.6,0.5-1.1,0.5-1.7c0-0.3,0.3-0.4,0.2-0.7C136.4,8.1,136.7,7.9,136.8,7.5z
			 M125.5,17.6L125.5,17.6L125.5,17.6L125.5,17.6z M123.9,19.1L123.9,19.1L123.9,19.1L123.9,19.1L123.9,19.1L123.9,19.1L123.9,19.1z
			 M132.3,19.6L132.3,19.6C132.3,19.6,132.3,19.5,132.3,19.6L132.3,19.6z M132.2,17.5C132.3,17.4,132.2,17.5,132.2,17.5L132.2,17.5
			L132.2,17.5z M133.1,15.7C133.1,15.7,133.1,15.6,133.1,15.7C133.2,15.6,133.1,15.7,133.1,15.7z M132.7,11.5L132.7,11.5L132.7,11.5
			L132.7,11.5z M132.2,11.1L132.2,11.1L132.2,11.1L132.2,11.1L132.2,11.1L132.2,11.1L132.2,11.1z M131.5,13.5L131.5,13.5
			C131.5,13.5,131.4,13.5,131.5,13.5C131.4,13.5,131.5,13.5,131.5,13.5z M129.8,21.7L129.8,21.7L129.8,21.7L129.8,21.7z"/>
		<path class="st0" d="M192.1,13.2c0.2-0.2,0.2-0.5,0.2-0.7c0.7-0.3,0.8-0.6,0.4-1.3c0,0.2,0,0.4-0.2,0.4c-0.7-0.1-1.4,0.1-2,0.1
			c-0.1,0-0.1,0-0.2,0.1c-0.3,0-0.2,0.2-0.2,0.4c0,0,0,0-0.1,0c0,0,0.1,0.1,0.1,0.2c-0.3,0-0.6,0-0.7,0.3c-0.2,0.5-0.6,0.9-0.8,1.3
			c-0.1,0.1-0.4,0.2-0.2,0.5c-0.1,0.3-0.2,0.5-0.4,0.7c-0.6,0.7-1.3,1.4-2,2c-0.3,0-0.4,0.4-0.7,0.4c-0.3-0.2-0.1-0.7-0.4-0.9
			c0-1.1,0-2.2-0.1-3.3c0-0.3,0-0.6-0.1-0.9c-0.3-0.6,0.1-1.3-0.4-1.9c0.2-0.4-0.3-0.3-0.4-0.6c-0.8-0.7-1.7-0.3-2.6-0.4
			c0,0.2,0,0.4-0.1,0.5c-0.1,0-0.2,0.1-0.2,0.2c-0.2,0.1-0.2,0.3-0.1,0.4c-0.1,0.1-0.1,0.1-0.2,0.2c-0.1,0-0.1,0-0.2,0
			c-0.2,0-0.2,0.1-0.2,0.2c-0.4,0.5-0.1,1.1-0.4,1.6c-0.6,0.5-0.8,1.2-1.1,1.9c-0.3,0.2-0.4,0.6-0.5,0.9c-0.9,0.6-1.1,1.5-1.3,2.4
			c-0.3,0.6-0.2,1.4-0.8,1.9c-0.1,0-0.1,0-0.2,0c-0.5,0-0.9,0.1-1.3,0.4c-0.1,0-0.2,0-0.4,0c-0.5,0-0.9-0.1-1.3,0.1
			c-1.5-0.1-3,0.2-4.6,0.2c-0.5-0.1-1.1,0-1.6-0.3c0.4-0.1,0.7-0.4,1-0.6c0.4-0.5,1-0.7,1.4-1.2c0.2-0.1,0.3-0.2,0.4-0.4
			c0.4,0,0.6-0.4,0.8-0.6l0,0c0.1,0.1,0.2,0,0.4,0c0,0,0,0,0-0.1c0.7,0,1.1-0.4,1.6-0.8h0.1c0.2-0.1,0.2-0.2,0.3-0.4
			c0.2-0.2,0.4-0.3,0.5-0.5c0.7,0,1.1-0.4,1.2-1.1c0.4-0.2,0.5-0.7,0.9-1c0.4-0.2,0.5-0.4,0.3-0.8c-0.2-0.3-0.2-0.7-0.5-0.9
			c-0.3-0.6-0.8-1.1-1.5-1.3c-0.2-0.2-0.4-0.4-0.8-0.3c-0.1,0-0.1,0-0.2,0c0-0.1-0.1-0.1-0.1,0c-1.3-1-2.7-1.4-4.3-1.4
			c-0.5,0-0.8,0.3-0.7,0.8c-0.1,0-0.1,0.1-0.1,0.1c0,0.1,0.1,0.3,0.1,0.4c-0.1-0.1-0.1-0.2-0.1-0.4c-1,0.7-1.1,2-0.1,2.4
			s2.1,0.7,3.3,0.8c0.3,0.1,0.6,0.1,0.7,0.4c0,0.1,0,0.2,0,0.3c-0.6,0.2-1.2,0.3-1.4,1c-0.6,0.2-1,0.6-1.5,1.1
			c-0.2,0-0.4,0.1-0.5,0.3c-1.5,0.5-2.7,1.6-3.9,2.5c-0.8,0.1-1.1,0.8-1.7,1.3c0.4,0.4,0.1,0.9,0.1,1.3c-0.1,0.1-0.2,0.3-0.2,0.4
			c-0.6,1.1-0.5,1.4,0.6,2.1c0.5,0.3,1,0.3,1.5,0.4c0,0.1,0,0.1,0.1,0.1c0.2,0.5,0.6,0.3,0.9,0.4c0.4,0,0.9,0,1.3-0.1
			c1.1,0.1,2.2,0.1,3.3-0.2c0.1-0.2,0.2-0.3,0.2-0.5v-0.1l0,0v0.1c0.3,0,0.5-0.1,0.6-0.4c0.1,0,0.1,0,0.2-0.1l0,0c0.1,0,0.1,0,0.2,0
			c0.1,0,0.2-0.1,0.2-0.2c0.1,0.1,0.2,0.2,0.4,0.2l0,0h0.1c0.3,0,0.5,0,0.7-0.2c0.6,0,1.2-0.1,1.7-0.4c0.2-0.1,0.4-0.2,0.6-0.3
			c0.1,0,0.1,0,0.2,0c0.3,0,0.6-0.1,0.7,0.3c0.1,0.5,0.5,0.4,0.9,0.4c0.3,0,0.5-0.2,0.8-0.2c0,0.4,0.2,0.6,0.6,0.5
			c0.5-0.5,1.1-1,1.3-1.7c0.2-0.3,0.4-0.6,0.6-0.9c0.3-0.3,0.4-0.5,0.4-0.9c0.5-0.7,0.9-1.4,1.2-2.3c0.3-0.1,0.2-0.6,0.6-0.5
			c-0.1,0.9,0.2,1.6,0.6,2.3c-0.1,0.2-0.3,0.4-0.1,0.6c0.3,0.3,0.3,0.7,0.3,1c0,0.6,0.3,1,0.7,1.4c0,0.1,0,0.1,0.1,0.2
			c0,0.1,0,0.1,0.1,0.2c0.4,0.6,0.4,0.6,0.9,0.6c0.4-0.3,0.9,0.2,1.3-0.2c0.5-0.3,1-0.5,1.3-1.1c0.5-0.2,0.4-0.8,0.7-1.2
			c0.1-0.6,0.5-1.2,0.4-1.8c0.1-0.4,0.5-0.6,0.6-0.9c0.4-0.3,0.8-0.6,0.7-1.2c0.2-0.2,0.2-0.5,0.4-0.8c0,0,0,0,0.1,0
			c0.5-0.1,0.7-0.5,0.9-1c0-0.1,0.1-0.2,0.1-0.3c0.3-0.3,0.4-0.6,0.7-0.8C191.5,13.9,192.2,13.7,192.1,13.2z M190.2,12.1L190.2,12.1
			L190.2,12.1L190.2,12.1z M182.8,11.1L182.8,11.1L182.8,11.1L182.8,11.1z M182.8,10.9L182.8,10.9L182.8,10.9L182.8,10.9L182.8,10.9
			L182.8,10.9L182.8,10.9z M181.4,14.1L181.4,14.1L181.4,14.1L181.4,14.1z M177.7,20L177.7,20L177.7,20L177.7,20z M176.6,21.3
			C176.5,21.3,176.5,21.3,176.6,21.3C176.5,21.3,176.5,21.3,176.6,21.3L176.6,21.3z M170.8,22L170.8,22L170.8,22L170.8,22z
			 M167.7,22.2C167.7,22.2,167.6,22.3,167.7,22.2C167.6,22.3,167.6,22.2,167.7,22.2C167.6,22.2,167.7,22.2,167.7,22.2z M169,23.5
			L169,23.5L169,23.5L169,23.5z M184.7,16.5L184.7,16.5L184.7,16.5L184.7,16.5z M174.5,12.1L174.5,12.1L174.5,12.1L174.5,12.1z
			 M168.7,11.1c0,0,0.1,0,0.1,0.1c0,0,0,0-0.1,0.1C168.7,11.2,168.7,11.1,168.7,11.1z"/>
		<path class="st0" d="M206.3,10.8c-0.1,0-0.1,0.1-0.2,0.1c0.1,0,0.2,0,0.2,0C206.3,10.9,206.3,10.8,206.3,10.8z"/>
		<path class="st0" d="M220,25.2c-0.1,0-0.2,0-0.4,0c0.1,0,0.2-0.1,0.2-0.2s0-0.1,0-0.2s0.1-0.3,0-0.3c-1.1-0.3-2.2-1-3.5-0.8
			c-0.8-0.8-1.7-1.5-2.8-1.9c-0.5-0.4-0.8-0.9-1.5-1.1c-0.1-0.1-0.1-0.1-0.2-0.2c0-0.5-0.5-0.7-0.7-1.1c-0.1-0.4,0.3-0.5,0.5-0.6
			c0.4-0.2,0.9-0.2,1.3-0.5c0.4-0.2,0.8-0.2,1.1-0.5c1-0.2,1.8-0.7,2.2-1.7c0.8-0.1,1.2-0.6,1.3-1.3c0.5-0.5,1-0.9,1-1.7
			c0.2-0.2,0.2-0.3,0.1-0.5c0.6,0,0.4-0.5,0.4-0.7c0.1-0.4,0-0.8,0.2-1.2c0.2-0.8-0.1-1.7-0.9-1.9c-1.4-0.3-2.7-0.5-4.1,0
			c-0.2,0.1-0.5,0.3-0.7,0.4c-0.8,0.2-1.6,0.3-2.1,1.1c-0.4-0.1-0.4,0.3-0.7,0.4c-1.2,0.1-2.3,0.2-2.8,1.5c-0.4,0.4-0.7,0.8-0.8,1.4
			c-0.1,0.3-0.6,0.5-0.4,0.9c-0.4,0-0.4,0.4-0.5,0.6c-0.3,0.6-0.5,1.3-0.7,1.9c-0.4,0.2-0.5,0.7-0.7,1c-0.1,0.2-0.2,0.4-0.1,0.6
			l0.1,0.1c-0.3,0.7-0.7,1.4-0.9,2.1c-0.3,0.3-0.1,0.8-0.6,0.9c0,0.9-0.2,1.8-0.4,2.8c0.3,0.1,0.6,0.3,0.9,0c0.1,0.1,0.2,0.1,0.4,0
			c0.5-0.2,0.8-0.5,1.2-0.7c0.5-0.3,0.8-0.8,0.7-1.5l0,0c0-0.1,0-0.1,0-0.2c0.5-0.1,0.3-0.7,0.7-0.9c0.1,0.1,0.1,0.2,0.2,0.3
			c0.4,0.2,0.4,0.8,0.9,0.9c0.4,0.6,0.8,1.1,1.5,1.2c0.1,0,0.1-0.1,0.2-0.1c0.5,0.5,1.1,0.8,1.6,1.2c0.2,0.5,0.8,0.3,1.1,0.7
			c0.1,0.3,0.6,0.1,0.7,0.5c0.2,0.1,0.3,0.1,0.5,0.2c0.3,0.4,0.7,0.5,1.1,0.6c0.7,0.1,1.2,0.9,2,0.7c0-0.2,0-0.4,0.1-0.6
			c0.6,0.6,1.2,0.3,1.7,0.1c0.1-0.2,0.1-0.4,0.1-0.6c0.3-0.5,0.5-1.1,1.3-0.9C220,25.3,220,25.3,220,25.2z M215,15.4L215,15.4
			L215,15.4L215,15.4L215,15.4L215,15.4z M207.9,16L207.9,16L207.9,16L207.9,16z M212.4,12.5c0,0,0-0.1,0.1-0.1
			c0.2-0.1,0.5-0.3,0.7-0.4c0.9-0.4,1.8-0.5,2.8-0.1c0,0.1,0.1,0.1,0.2,0.1c0,0.1,0,0.1,0,0.2c-0.1,0.1-0.1,0.1-0.2,0.2l0,0
			c-0.7,0.5-0.7,1.4-1.2,1.9c0,0,0,0,0,0.1c-0.8,0.2-1.5,0.7-2.2,0.9c-0.4,0.1-0.8,0-1,0.4c-0.4,0.1-1.1-0.3-1.1,0.6
			c-0.1,0-0.2,0-0.3,0c-0.1-0.1-0.3,0-0.4-0.2c0,0,0.1,0,0.1-0.1c0.1-0.2,0-0.5-0.1-0.7l0,0c0.6-0.2,1.3-1.2,1.5-2c0,0,0,0,0.1,0
			C211.8,13.4,212.1,13,212.4,12.5z M209.4,16C209.4,16.1,209.4,16.1,209.4,16C209.4,16.1,209.4,16.1,209.4,16
			C209.4,16.1,209.4,16.1,209.4,16z M215,15L215,15L215,15L215,15L215,15L215,15L215,15z M210,21.5L210,21.5L210,21.5L210,21.5z"/>
	</g>
</g>
</svg>
